<svg xmlns="http://www.w3.org/2000/svg" width="62" height="60" fill="none"><path fill="#C9F31D" d="M51.093 19.395c0 10.712-8.996 19.396-20.093 19.396s-20.093-8.684-20.093-19.396C10.907 8.684 19.903 0 31 0s20.093 8.684 20.093 19.395Zm-39.583 0c0 10.39 8.726 18.814 19.49 18.814 10.764 0 19.49-8.423 19.49-18.814C50.49 9.005 41.764.582 31 .582c-10.764 0-19.49 8.423-19.49 18.813Z"/><path fill="#C9F31D" d="M52.452 35.526c-7.845 7.626-20.562 7.626-28.407 0-7.844-7.627-7.844-19.992 0-27.618 7.845-7.627 20.562-7.627 28.407 0 7.844 7.626 7.844 19.991 0 27.618ZM24.472 8.322c-7.61 7.398-7.61 19.392 0 26.79 7.608 7.397 19.945 7.397 27.554 0 7.608-7.398 7.608-19.392 0-26.79-7.61-7.397-19.946-7.397-27.555 0Z"/><path fill="#C9F31D" d="M41.764 48.28c-11.176 0-20.236-8.747-20.236-19.536 0-10.789 9.06-19.535 20.236-19.535S62 17.955 62 28.744 52.94 48.28 41.764 48.28Zm0-38.485c-10.84 0-19.63 8.484-19.63 18.95 0 10.464 8.79 18.948 19.63 18.948s19.629-8.484 19.629-18.949c0-10.465-8.788-18.949-19.63-18.949Z"/><path fill="#C9F31D" d="M24.865 49.6c-7.845-7.626-7.845-19.991 0-27.617 7.844-7.627 20.562-7.627 28.406 0 7.844 7.626 7.844 19.99 0 27.617-7.844 7.627-20.562 7.627-28.406 0Zm27.98-27.203c-7.609-7.398-19.945-7.398-27.554 0-7.61 7.397-7.61 19.392 0 26.79 7.609 7.397 19.945 7.397 27.554 0 7.609-7.398 7.609-19.393 0-26.79Z"/><path fill="#C9F31D" d="M10.907 40.326C10.907 29.46 19.903 20.65 31 20.65s20.093 8.809 20.093 19.675C51.093 51.19 42.097 60 31 60s-20.093-8.809-20.093-19.674Zm39.583 0c0-10.54-8.726-19.085-19.49-19.085-10.764 0-19.49 8.545-19.49 19.085 0 10.54 8.726 19.084 19.49 19.084 10.764 0 19.49-8.544 19.49-19.084Z"/><path fill="#C9F31D" d="M8.75 22.78c7.844-7.627 20.562-7.627 28.406 0 7.844 7.626 7.844 19.99 0 27.617-7.844 7.627-20.562 7.627-28.407 0-7.844-7.626-7.844-19.991 0-27.618Zm27.98 27.203c7.609-7.398 7.609-19.392 0-26.79-7.61-7.397-19.945-7.397-27.554 0-7.61 7.398-7.61 19.392 0 26.79 7.609 7.398 19.945 7.398 27.554 0Z"/><path fill="#C9F31D" d="M20.236 9.21c11.176 0 20.236 8.745 20.236 19.534S31.412 48.28 20.236 48.28 0 39.533 0 28.744 9.06 9.21 20.236 9.21Zm0 38.483c10.84 0 19.63-8.484 19.63-18.949 0-10.465-8.79-18.949-19.63-18.949S.607 18.28.607 28.745c0 10.464 8.788 18.948 19.63 18.948Z"/><path fill="#C9F31D" d="M37.975 7.111c7.844 7.627 7.844 19.992 0 27.618-7.844 7.627-20.562 7.627-28.406 0-7.844-7.626-7.844-19.991 0-27.618 7.844-7.626 20.562-7.626 28.406 0ZM9.995 34.315c7.609 7.398 19.945 7.398 27.554 0 7.61-7.398 7.61-19.392 0-26.79C29.94.129 17.604.129 9.995 7.526c-7.609 7.398-7.609 19.392 0 26.79Z"/></svg>